<svg width="44" height="44" viewBox="0 0 44 44" fill="none" xmlns="http://www.w3.org/2000/svg">
<path fill-rule="evenodd" clip-rule="evenodd" d="M37.5573 23.8613C36.8377 23.2266 35.9832 22.7352 35.041 22.4332C36.8393 20.9313 38.0709 18.8163 38.4071 16.4425C38.3048 16.4881 38.2016 16.5317 38.0977 16.5733C38.0126 16.6074 37.9269 16.6402 37.8408 16.6717C36.7208 17.0806 35.5174 17.2641 34.3033 17.1991L34.278 17.1977C32.1222 17.0763 30.088 16.1794 28.5671 14.6797L28.5564 14.6691C27.1785 13.3056 26.313 11.5341 26.0882 9.64226C26.0637 9.43613 26.0468 9.22857 26.0377 9.01996C25.9878 7.88025 26.1719 6.75282 26.5681 5.70034C23.0661 6.4047 20.274 8.89936 19.1831 12.1154C18.2866 11.9167 17.3584 11.7995 16.4072 11.7722C17.9022 6.56669 22.792 2.75 28.5935 2.75C29.936 2.75 31.2297 2.95439 32.4439 3.33309C31.3265 3.79399 30.3831 4.57715 29.7364 5.56298C29.7292 5.56218 29.7219 5.56138 29.7147 5.56059C29.0784 6.5553 28.76 7.72054 28.8118 8.9052C28.8176 9.03927 28.8282 9.1727 28.8433 9.30528C28.9916 10.601 29.58 11.8154 30.5203 12.7506L30.531 12.7612C31.574 13.7933 32.9724 14.409 34.4539 14.4882L34.4792 14.4895C35.3715 14.5336 36.2549 14.3811 37.0672 14.0517C37.5954 13.8375 38.0937 13.5484 38.5447 13.19L38.5466 13.1923C39.3796 12.5275 40.0248 11.6473 40.3926 10.6391C40.9461 12.0299 41.2497 13.5428 41.2497 15.125C41.2497 18.5351 39.8391 21.623 37.5573 23.8613Z" fill="url(#paint0_linear_473_2798)"/>
<path fill-rule="evenodd" clip-rule="evenodd" d="M17.1875 38.5L17.2609 38.4998V38.5H31.625L31.625 38.4999C35.3028 38.4999 38.5 35.3386 38.5 31.1666C38.5 26.9945 35.3028 23.8332 31.625 23.8332C30.6206 23.8332 29.6521 24.069 28.7748 24.4967C28.6572 23.5494 28.4384 22.6358 28.1302 21.7685L28.1334 21.7672C26.4536 17.0322 22.1185 13.75 17.1875 13.75C10.8518 13.75 5.5 19.1685 5.5 26.125C5.5 33.0815 10.8518 38.5 17.1875 38.5ZM31.625 41.2499C36.9407 41.2499 41.25 36.7354 41.25 31.1666C41.25 25.5977 36.9407 21.0832 31.625 21.0832C31.3523 21.0832 31.0822 21.0951 30.8153 21.1184C28.8428 15.2256 23.4862 11 17.1875 11C9.21389 11 2.75 17.7717 2.75 26.125C2.75 34.4783 9.21389 41.25 17.1875 41.25C17.2005 41.25 17.2134 41.25 17.2264 41.2499V41.25H31.625L31.625 41.2499Z" fill="url(#paint1_linear_473_2798)"/>
<defs>
<linearGradient id="paint0_linear_473_2798" x1="28.8285" y1="2.75" x2="28.8285" y2="23.8613" gradientUnits="userSpaceOnUse">
<stop stop-color="#F5BD52"/>
<stop offset="1" stop-color="#F5DA79"/>
</linearGradient>
<linearGradient id="paint1_linear_473_2798" x1="22" y1="11" x2="22" y2="41.25" gradientUnits="userSpaceOnUse">
<stop stop-color="#B2D4F7"/>
<stop offset="1" stop-color="#D9E2F3"/>
</linearGradient>
</defs>
</svg>
