<svg width="44" height="44" viewBox="0 0 44 44" fill="none" xmlns="http://www.w3.org/2000/svg">
<path fill-rule="evenodd" clip-rule="evenodd" d="M38.6532 15.9359C37.1899 17.3864 35.2233 18.2323 33.1518 18.2996C31.0498 18.368 29.0023 17.6295 27.4369 16.2383C25.8714 14.8471 24.909 12.9108 24.7507 10.8336C24.5952 8.79388 25.2268 6.7732 26.5155 5.17839C27.2048 4.34951 28.0584 3.65879 29.027 3.15469C27.8747 2.88995 26.674 2.75 25.4404 2.75C16.709 2.75 9.63086 9.76048 9.63086 18.4084C9.63086 20.3131 9.97422 22.1383 10.603 23.8267C11.3508 23.2937 12.1852 22.8723 13.0812 22.5871C12.6271 21.2753 12.3809 19.8693 12.3809 18.4084C12.3809 12.1439 16.9078 6.8903 22.9405 5.73585C22.1826 7.3825 21.8472 9.20553 21.9871 11.0401C22.1992 13.8231 23.4886 16.4174 25.586 18.2813C27.6834 20.1453 30.4267 21.1348 33.243 21.0432C35.0941 20.9829 36.8827 20.4588 38.4504 19.5397C37.9498 25.2259 33.7123 29.8807 28.1491 31.0391C28.7307 31.7661 29.1289 32.6437 29.2744 33.6031C36.1531 31.906 41.2499 25.7467 41.2499 18.4084C41.2499 16.6268 40.9495 14.9148 40.3962 13.3192C39.9913 14.3032 39.3951 15.1905 38.6532 15.9359Z" fill="url(#paint0_linear_473_2792)"/>
<path fill-rule="evenodd" clip-rule="evenodd" d="M13.066 38.4876L13.0944 38.4876V38.4883H17.8612C17.8616 38.4889 17.8621 38.4895 17.8625 38.49H17.8723C17.8718 38.4895 17.8714 38.4889 17.871 38.4883H23.0641C23.0721 38.4889 23.08 38.4895 23.088 38.49H23.3782V38.5003C23.3794 38.5003 23.3806 38.5003 23.3818 38.5003C25.6615 38.5003 27.5091 36.6525 27.5091 34.3737C27.5091 32.0948 25.6615 30.247 23.3818 30.247C22.3254 30.247 21.3617 30.6438 20.6318 31.2965C20.6351 31.205 20.6368 31.1131 20.6368 31.0209C20.6368 30.1008 20.4693 29.2194 20.163 28.405L20.1555 28.4089C19.0857 25.5829 16.3293 23.553 13.066 23.553C8.86243 23.553 5.5 26.9211 5.5 31.0203C5.5 35.1195 8.86243 38.4876 13.066 38.4876ZM23.0022 41.24C23.1279 41.2469 23.2545 41.2503 23.3818 41.2503C27.1801 41.2503 30.2591 38.1715 30.2591 34.3737C30.2591 30.5758 27.1801 27.497 23.3818 27.497C23.173 27.497 22.9664 27.5063 22.7623 27.5245C21.3208 23.6032 17.5236 20.803 13.066 20.803C7.36861 20.803 2.75 25.3774 2.75 31.0203C2.75 36.6632 7.36861 41.2376 13.066 41.2376C13.0688 41.2376 13.0717 41.2376 13.0746 41.2376V41.24L23.0022 41.24Z" fill="url(#paint1_linear_473_2792)"/>
<defs>
<linearGradient id="paint0_linear_473_2792" x1="25.4404" y1="2.75" x2="25.4404" y2="33.6031" gradientUnits="userSpaceOnUse">
<stop stop-color="#F5BD52"/>
<stop offset="1" stop-color="#F5DA79"/>
</linearGradient>
<linearGradient id="paint1_linear_473_2792" x1="16.5046" y1="20.803" x2="16.5046" y2="41.2503" gradientUnits="userSpaceOnUse">
<stop stop-color="#B2D4F7"/>
<stop offset="1" stop-color="#D9E2F3"/>
</linearGradient>
</defs>
</svg>
