<svg width="146" height="146" viewBox="0 0 146 146" fill="none" xmlns="http://www.w3.org/2000/svg">
<path fill-rule="evenodd" clip-rule="evenodd" d="M123.504 55.5382C126.182 51.6954 127.752 47.0234 127.752 41.9846C127.752 28.8763 117.126 18.25 104.018 18.25C98.0239 18.25 92.549 20.4717 88.3717 24.1365C85.9722 22.152 83.3662 20.4083 80.5908 18.9425C86.5517 12.8827 94.8458 9.125 104.018 9.125C122.165 9.125 136.877 23.8367 136.877 41.9846C136.877 50.1418 133.905 57.6049 128.984 63.3497C127.552 60.4724 125.698 57.8416 123.504 55.5382Z" fill="url(#paint0_linear_494_1463)"/>
<path fill-rule="evenodd" clip-rule="evenodd" d="M136.875 77.5624C136.875 92.3362 127.2 104.767 114.062 108.415V98.7628C121.962 95.4551 127.75 87.3801 127.75 77.5624C127.75 64.6488 117.736 54.75 106.074 54.75C102.78 54.75 99.617 55.54 96.7742 56.9648C96.6292 54.3104 96.2399 51.7238 95.6293 49.229L95.6157 49.2346C91.2917 31.2533 75.6639 18.25 57.5253 18.25C36.1432 18.25 18.25 36.3196 18.25 59.3125C18.25 74.0454 25.5965 86.757 36.5 93.9887V104.53C20.3003 96.4161 9.125 79.2176 9.125 59.3125C9.125 31.5947 30.7946 9.125 57.5253 9.125C79.7021 9.125 98.3952 24.5908 104.121 45.6882C104.767 45.6463 105.418 45.625 106.074 45.625C123.085 45.625 136.875 59.9239 136.875 77.5624ZM45.6298 102.242C45.6291 100.059 46.3243 97.6868 47.2717 95.4678C49.2951 90.7282 52.4688 86.6875 52.4688 86.6875C52.4688 86.6875 55.4995 90.8735 57.5286 95.4713C58.5494 97.784 59.3166 100.201 59.3173 102.242C59.3185 106.25 56.2555 109.5 52.4757 109.5C48.6961 109.5 45.631 106.25 45.6298 102.242ZM70.0842 95.4678C69.1368 97.6868 68.4416 100.059 68.4423 102.242C68.4435 106.25 71.5086 109.5 75.2883 109.5C79.0679 109.5 82.131 106.25 82.1298 102.242C82.1292 100.201 81.3619 97.784 80.3411 95.4713C78.312 90.8735 75.2812 86.6875 75.2812 86.6875C75.2812 86.6875 72.1076 90.7282 70.0842 95.4678ZM58.7447 125.054C58.7441 122.872 59.4393 120.499 60.3867 118.28C62.4101 113.541 65.5837 109.5 65.5837 109.5C65.5837 109.5 68.6144 113.686 70.6436 118.284C71.6643 120.597 72.4316 123.013 72.4322 125.054C72.4335 129.063 69.3704 132.312 65.5907 132.312C61.811 132.312 58.746 129.063 58.7447 125.054ZM92.8967 95.4678C91.9493 97.6868 91.2541 100.059 91.2548 102.242C91.256 106.25 94.3211 109.5 98.1008 109.5C101.88 109.5 104.944 106.25 104.942 102.242C104.942 100.201 104.174 97.784 103.154 95.4713C101.124 90.8735 98.0938 86.6875 98.0938 86.6875C98.0938 86.6875 94.9201 90.7282 92.8967 95.4678ZM81.6263 125.054C81.6256 122.872 82.3209 120.499 83.2682 118.28C85.2916 113.541 88.4653 109.5 88.4653 109.5C88.4653 109.5 91.496 113.686 93.5252 118.284C94.5459 120.597 95.3132 123.013 95.3138 125.054C95.315 129.063 92.252 132.312 88.4723 132.312C84.6926 132.312 81.6275 129.063 81.6263 125.054Z" fill="url(#paint1_linear_494_1463)"/>
<defs>
<linearGradient id="paint0_linear_494_1463" x1="108.734" y1="9.125" x2="108.734" y2="63.3497" gradientUnits="userSpaceOnUse">
<stop stop-color="#EFC977"/>
<stop offset="1" stop-color="#E07256"/>
</linearGradient>
<linearGradient id="paint1_linear_494_1463" x1="72.9998" y1="9.125" x2="72.9998" y2="132.312" gradientUnits="userSpaceOnUse">
<stop stop-color="#95B6F6"/>
<stop offset="1" stop-color="#5193DE"/>
</linearGradient>
</defs>
</svg>
