<svg width="44" height="44" viewBox="0 0 44 44" fill="none" xmlns="http://www.w3.org/2000/svg">
<path fill-rule="evenodd" clip-rule="evenodd" d="M20.625 2.75V6.875H23.375V2.75H20.625ZM28.342 29.2403C30.3544 27.4762 31.625 24.8865 31.625 22C31.625 16.6843 27.3157 12.375 22 12.375C16.6843 12.375 12.375 16.6843 12.375 22C12.375 22.195 12.3808 22.3886 12.3922 22.5807C11.4507 22.9116 10.5717 23.3753 9.77764 23.9493C9.67717 23.3143 9.625 22.6632 9.625 22C9.625 15.1655 15.1655 9.625 22 9.625C28.8345 9.625 34.375 15.1655 34.375 22C34.375 25.3942 33.0085 28.4693 30.7956 30.7051C30.0969 30.0578 29.2634 29.554 28.342 29.2403ZM37.125 20.625H41.25V23.375H37.125V20.625ZM37.9835 11.1842L34.4111 13.2467L35.7861 15.6283L39.3585 13.5658L37.9835 11.1842ZM28.3718 8.21399L30.4343 4.64163L32.8159 6.01663L30.7534 9.58899L28.3718 8.21399ZM11.1842 6.01663L13.2467 9.58899L15.6283 8.21399L13.5658 4.64163L11.1842 6.01663ZM8.2139 15.6283L4.64155 13.5658L6.01655 11.1842L9.5889 13.2467L8.2139 15.6283ZM6.875 20.625H2.75V23.375H6.875V20.625ZM37.9835 32.8158L34.4112 30.7533L35.7862 28.3717L39.3585 30.4342L37.9835 32.8158Z" fill="url(#paint0_linear_473_2827)"/>
<path fill-rule="evenodd" clip-rule="evenodd" d="M15.8125 38.4997C15.8508 38.4997 15.8889 38.4994 15.927 38.4988H26.0331C26.0507 38.4992 26.0683 38.4995 26.086 38.4996H26.125V38.4998C26.125 38.4998 26.125 38.4998 26.125 38.4998C28.4032 38.4998 30.25 36.653 30.25 34.3748C30.25 32.0966 28.4032 30.2498 26.125 30.2498C25.0671 30.2498 24.1022 30.648 23.3721 31.3028C23.3778 31.1817 23.3807 31.0599 23.3807 30.9375C23.3807 30.009 23.2134 29.1196 22.9073 28.2977C23.8673 27.7883 24.9625 27.4998 26.125 27.4998C29.922 27.4998 33 30.5778 33 34.3748C33 38.1718 29.922 41.2498 26.125 41.2498C26.1082 41.2498 26.0914 41.2498 26.0746 41.2496L15.8658 41.2496V41.2495C15.848 41.2496 15.8303 41.2497 15.8125 41.2497C10.1171 41.2497 5.5 36.6326 5.5 30.9371C5.5 25.2417 10.1171 20.6246 15.8125 20.6246C20.3116 20.6246 24.1378 23.5058 25.5467 27.5237C24.5974 27.6028 23.703 27.8747 22.9026 28.3001C21.8323 25.4237 19.0617 23.3746 15.8125 23.3746C11.6359 23.3746 8.25 26.7605 8.25 30.9371C8.25 35.1138 11.6359 38.4997 15.8125 38.4997Z" fill="url(#paint1_linear_473_2827)"/>
<defs>
<linearGradient id="paint0_linear_473_2827" x1="22" y1="2.75" x2="22" y2="32.8158" gradientUnits="userSpaceOnUse">
<stop stop-color="#EFC977"/>
<stop offset="1" stop-color="#E07256"/>
</linearGradient>
<linearGradient id="paint1_linear_473_2827" x1="19.25" y1="20.6246" x2="19.25" y2="41.2498" gradientUnits="userSpaceOnUse">
<stop stop-color="#B2D4F7"/>
<stop offset="1" stop-color="#D9E2F3"/>
</linearGradient>
</defs>
</svg>
