<svg width="44" height="44" viewBox="0 0 44 44" fill="none" xmlns="http://www.w3.org/2000/svg">
<path fill-rule="evenodd" clip-rule="evenodd" d="M20.625 6.875V2.75H23.375V6.875H20.625ZM28.3718 8.21399L30.4343 4.64163L32.8159 6.01663L30.7534 9.58899L28.3718 8.21399ZM22 31.625C27.3157 31.625 31.625 27.3157 31.625 22C31.625 16.6843 27.3157 12.375 22 12.375C16.6843 12.375 12.375 16.6843 12.375 22C12.375 27.3157 16.6843 31.625 22 31.625ZM22 34.375C28.8345 34.375 34.375 28.8345 34.375 22C34.375 15.1655 28.8345 9.625 22 9.625C15.1655 9.625 9.625 15.1655 9.625 22C9.625 28.8345 15.1655 34.375 22 34.375ZM37.125 20.625H41.25V23.375H37.125V20.625ZM37.9835 11.1842L34.4111 13.2467L35.7861 15.6283L39.3585 13.5658L37.9835 11.1842ZM11.1842 6.01663L13.2467 9.58899L15.6283 8.21399L13.5658 4.64163L11.1842 6.01663ZM8.2139 15.6283L4.64155 13.5658L6.01655 11.1842L9.5889 13.2467L8.2139 15.6283ZM20.625 37.125V41.25H23.375V37.125H20.625ZM6.875 20.625H2.75V23.375H6.875V20.625ZM4.64147 30.4342L8.21383 28.3717L9.58883 30.7533L6.01647 32.8158L4.64147 30.4342ZM13.2468 34.4113L11.1843 37.9836L13.5659 39.3586L15.6284 35.7863L13.2468 34.4113ZM30.4342 39.3586L28.3717 35.7863L30.7533 34.4113L32.8158 37.9836L30.4342 39.3586ZM34.4112 30.7533L37.9835 32.8158L39.3585 30.4342L35.7862 28.3717L34.4112 30.7533Z" fill="url(#paint0_linear_473_2810)"/>
<defs>
<linearGradient id="paint0_linear_473_2810" x1="22" y1="2.75" x2="22" y2="41.25" gradientUnits="userSpaceOnUse">
<stop stop-color="#EFC977"/>
<stop offset="1" stop-color="#E07256"/>
</linearGradient>
</defs>
</svg>
